<?xml version="1.0" encoding="UTF-8"?>
<svg id="Layer_1" xmlns="http://www.w3.org/2000/svg" version="1.1" viewBox="0 0 4000 2742.8">
  <!-- Generator: Adobe Illustrator 30.1.0, SVG Export Plug-In . SVG Version: 2.1.1 Build 136)  -->
  <defs>
    <style>
      .st0 {
        fill: #020202;
      }
    </style>
  </defs>
  <path class="st0" d="M3996.3,2314.3l-4.5-591.2-12.4-1146.4-3.9-365.7c-.7-46.5,3.4-95.9-1.1-142-1.7-17.8-6.1-28.7-19.5-41.3-40.3-38.1-114-26.1-165.2-25.2L997.4,33.5l-649.4,5h-176.5c-29.3,0-62-2.9-90.8,1.3-15.2,2.2-31,11.3-41.6,22.3-16,16.7-20.2,34.6-21.7,56.8-3.8,54.2-2,109.8-2.6,164.2l-2.8,283.3-4.7,772.6-4.5,892.7-2,294.5c-.1,44.1-1.7,88.9.1,132.9,1.1,25.1,7.1,42.7,26.3,59.9,39.2,35.2,134.1,21,185.8,20.6l2541.2-17.8,772.1-4.6,250.9-2c49.3-.2,100.5,2.5,149.6-.9,20.7-1.5,34.2-5.9,49.3-21,11.2-11.2,20.5-26.7,22.2-42.7,3.5-35,1-72.6.8-107.8-.5-76.2-1.4-152.4-2.7-228.5ZM158,129c49.2-2.9,99.2-.8,148.5-.6l241.6.5,704.6-2.8,1998.7-16,350,1.3c77.4.4,155.3-1.1,232.6,2,1.2,57.2,2.8,117-1.3,174.1-90.3,4.9-188.6.8-279.8,1.3l-605.8,3.3-1470.7,10c-246.4,1.7-493.3-1-739.7,4.6l-580.1,4.6c-1.4-60.2-1.4-122.2,1.3-182.3ZM3953.6,2637.8c-1.6,18-7.1,21.7-20.3,32.9-99.9,2.7-200.4,1.9-300.4,2.4l-586.5,3.2-2756.2,20.7-133.4.6c-23.4,0-49.8,2.3-72.8-1.5-11.1-1.8-24.9-5.2-32.9-13.7-3.4-3.7-3-6.5-3.6-11.3-5.1-41-2.8-83.6-2.7-124.8-.2-66.9.3-133.7,1.5-200.6,2.7-146.7,2.5-293.8,3-440.5l5.7-1074.6,1-270.4c0-51.2-1.2-102.8.9-154,129.5-6,259.8-3.6,389.4-5.4l889.7-8.9,2368.6-18.2c76.4-1,152.8-1.2,229.2-.6,5.6,205.7,5.3,411.9,7.5,617.7l8.7,945.1,2.8,491.5c0,42.7.5,85.3,1.1,128,.4,27.2,2.1,55.3-.4,82.5Z"/>
  <path class="st0" d="M2977.3,245.7l2.6,6.6c12.6,5.4,289.4-1.8,324-3.9-69.6-2.9-139.2-2.9-208.8-3.2-38.7-.2-79.2-2.8-117.8.5Z"/>
  <path class="st0" d="M2828.1,219c265.8-3.8,531.6-1.9,797.3,5.8l2.3-7.1-2.3-3.2c-29.3-4.6-62.8-1.1-92.6-.8-56.1.5-112.2.7-168.4.4l-391.4-4.2c-59.5-.5-120-3.3-179.4-1.2l-1.8,5.7c7.3,7.2,26.3,4.7,36.3,4.6Z"/>
  <path class="st0" d="M1813.3,238.9c12.5,6.1,136.3-.2,159.8,0,7.6-2.5,12.5-4.7,16.4-12.1,2.1-4.1,4-9.7,3-14.2-1.2-5.6-4.5-9.4-9.4-12-14.3-7.7-137-2.5-162.6-2.6-7.9,1.5-10.8,1.5-17,6.8-3.3,7.7-4.9,13.8-1.7,21.9,2.2,5.5,6,9.7,11.4,12.3Z"/>
  <path class="st0" d="M1248.8,240.2c16.1,9.3,95.6,3,119.3,2.9,24,0,104.6,6,119.7-9.5,3.9-4,6.2-8.4,6-14.2-.3-5.8-3.3-10-7.8-13.4-17-13.2-98.6-6.6-123.1-5.8-23.3.6-101.9-2.9-118.6,6.4-4.5,6.1-6.8,13-5.2,20.7,1.4,6.5,4.1,9.7,9.8,13Z"/>
  <path class="st0" d="M652.2,230.2c.3,2.3.8,4.6,1.4,6.8.6,2.3,1.2,4.5,2,6.7.8,2.2,1.7,4.3,2.7,6.4.9,2,2,3.9,3.1,5.7,1.1,1.9,2.3,3.6,3.6,5.4,1.3,1.7,2.7,3.4,4.2,5,1.5,1.6,3,3.1,4.6,4.6,1.6,1.4,3.3,2.8,5.1,4.1,1.8,1.3,3.6,2.5,5.4,3.6,1.9,1.1,3.8,2.1,5.8,3,2,.9,4,1.7,6,2.4,14,4.9,26.4,5,40.8,2.7,20.2-7,36.6-17.4,46.3-37.2,8.2-16.8,9.4-37.2,2.5-54.7-7.2-18.2-22.4-32.7-40.4-40-14.6-5.9-28.1-5-43.4-3.4-21.3,9.3-37.8,22.1-46.1,44.7-.8,2.2-1.5,4.4-2.1,6.6-.6,2.3-1,4.5-1.4,6.8-.4,2.3-.6,4.6-.7,6.9s-.1,4.6,0,7c.1,2.3.3,4.6.7,6.9Z"/>
  <path class="st0" d="M479.6,279.5c13.6,7.5,26.1,9.5,41.3,9.4,21.7-4.7,38.4-13.2,50.6-32.7,10.1-16.4,14.3-37.4,9.7-56.2-.5-2.1-1.1-4.1-1.9-6.2-.7-2-1.5-4-2.5-5.9-.9-1.9-1.9-3.8-3-5.7-1.1-1.8-2.3-3.6-3.6-5.3-1.3-1.7-2.6-3.4-4.1-5-1.4-1.6-3-3.1-4.6-4.5-1.6-1.4-3.3-2.8-5-4.1-1.7-1.3-3.5-2.5-5.4-3.6-14.6-8.8-29.7-10.5-46.3-10.7-20.9,4.4-38.3,14.1-50.3,32.4-10.3,15.8-14.5,36.1-9.8,54.6,4.8,18.7,17.9,34.3,34.7,43.6Z"/>
  <path class="st0" d="M236.5,243.9c.8,2.3,1.6,4.5,2.6,6.6,1,2.2,2.1,4.3,3.3,6.3,1.2,2.1,2.5,4,3.9,6,1.4,1.9,2.9,3.8,4.5,5.5,1.6,1.8,3.3,3.5,5,5.1,1.8,1.6,3.6,3.1,5.5,4.5s3.9,2.7,5.9,3.9c16,9.6,30.1,10.6,48.3,9.8,22.9-7.5,42.8-18.5,53.6-41.2,8.9-18.5,8.7-40.7,1.1-59.6-.9-2.2-1.9-4.3-3-6.4-1.1-2.1-2.3-4.1-3.6-6-1.3-1.9-2.7-3.8-4.2-5.6-1.5-1.8-3.1-3.5-4.7-5.2-1.7-1.6-3.4-3.2-5.2-4.7-1.8-1.5-3.7-2.8-5.7-4.1-2-1.3-4-2.5-6.1-3.5-2.1-1.1-4.2-2-6.4-2.9-11-4.4-22.2-5.7-34-5.6-21.4,4.2-38.4,12.2-51.2,30.7-11.8,17.1-16.5,39.2-11.9,59.6.5,2.3,1.2,4.6,1.9,6.9Z"/>
  <path class="st0" d="M3884,1036.1c3-48.3,8.9-297-.9-328.5-5.3,42.6-3.5,87.3-3.7,130.2-.3,65.3-1.9,133.3,4.5,198.3Z"/>
  <path class="st0" d="M3848,2096.3l3.1,2.5c8.2-20.7-3-255.3-5-293.2-1.2,44.8-9,263.8,1.9,290.7Z"/>
  <path class="st0" d="M3829.5,793.9l-.3-.6c0,.9-.2,1.7-.3,2.4l.6-1.8Z"/>
  <path class="st0" d="M3829.8,465.7c-9.5,71.5-4.3,168.5-2.9,242.6.4,21.8,5.1,62.6,1,82.5l1.3,2.5c4.9-49.7,13-307.7.6-327.6Z"/>
  <path class="st0" d="M3883.5,1168.8c-4.7,58.6,1,117.2,1.4,175.8.3,38.3-7.4,178.7,3.1,208.1,4.8-40.1,4.2-370.7-2.7-382-.6-.9-1.1-1.3-1.7-1.9Z"/>
  <path class="st0" d="M154.6,1311.2c-2.3-3-2.7-3.4-6.4-5-6.2,22.8-5.3,387.3.7,401.1,4.1,1.5,2.4,1.3,4.9,1.4,1.8-6.9,2.8-13.6,3-20.7,2.7-84.7-.8-170.4-1.1-255.2-.1-31.2,5-94.3-1.1-121.5Z"/>
  <path class="st0" d="M154.4,474.1c-8.1,36.6-4.3,78.2-4.3,115.6l-.5,157.6-1.1,276.8c-.3,51.3-3.3,104.1,0,155.2l2.3,3.3,2.7.3c4.9-14.3,4.5-30.4,4.9-45.4,1.9-59.4,5.5-648.1,1.6-658.5-1-2.7-3.2-3.3-5.5-4.8Z"/>
  <path class="st0" d="M102.4,742l-5.2-2.4c-4.9,27.4-2.6,59-3,86.8-.8,65.1-1.2,130.2-1.3,195.4l-.5,298.8c-.4,82.7-1.9,165.5,1.5,248.1.5,11,0,24.8,6.3,34.2,9.5-35.4,3.4-88.5,2.8-126.1l-1.6-145.9c0-148.5.6-296.9,2.2-445.4.3-24.1,5.7-128.1-1.2-143.5Z"/>
  <path class="st0" d="M3010.4,2323.4c19.2,5.6,150.6,2.7,182.8,2.8,140.4.7,281.2,4,421.5,2.1,6.9-5,11.5-9.5,12.8-18.3.9-6.1-.4-12.3-4.2-17.2-7.1-9.1-20.7-8.1-31.2-8.2-86.3-1.4-172.7.2-259-.8-69.5-.9-139-1.2-208.5-1-37.6,0-75.5-1.1-113,.4-6.8,3.6-11.5,5.7-13.8,13.7-1.5,5.2-1.6,10.9.8,15.9,2.3,4.7,6.6,9.1,11.7,10.6Z"/>
  <path class="st0" d="M2187.6,2323.2c43.6,2.8,88.2.5,131.9.6l264.8.4,177.1.5c33.3.3,68.4,3.2,101.5.3,6.9-4.9,13.3-10.6,14.8-19.4.9-5.3-.8-10.5-4.5-14.3-5.3-5.5-13.3-8-20.7-8.6-27.3-2.2-56-.1-83.5-.5-67.9-1-135.9-1.5-203.8-1.6l-253.5-.6c-50.3-.1-100.9-1.3-151.2.5-7.4,5.4-15.2,12.7-16.4,22.3-.4,3.2,1.3,6.4,3.4,8.8,8.7,9.2,28,10.9,39.9,11.7Z"/>
  <path class="st0" d="M1944.8,2305.8c-.4-7.9-2.1-15.9-8.3-21.3-4.5-3.9-14.2-3.7-20.1-4-69-3.5-139.2-.6-208.4-1.2-136.8-1-274.3-2.7-411.1-.3-7.8,2.4-13.9,4.5-17.4,12.8-2.1,5.1-2.1,11.4.3,16.4,2.8,6,8.8,10.3,15.1,11.8,27.8,6.7,119.7,1.9,156.3,2l232.6,1.8c71.4,0,143.2-1.3,214.6.3l-.2,38.9-427.1.9h-117.2c-22.9-.2-46.7-1.7-69.5.2-9.5.8-26.5,3.1-33.8,10-4.4,4.2-4.2,5.8-4.3,11.4,3.5,7.2,10,16.5,18.2,18.6,3.9,1,7.5,1.3,11.4,1.4,156.1-1.1,312.4.9,468.5,1.5,32.2.1,168.4,4.5,189.9-2.6,15.6-18.1,9.1-47.9,9.3-70.2,0-9.5,1.5-19,1-28.5Z"/>
  <path class="st0" d="M888,2319.4l148.7.9c26.2.1,53.3,1.5,79.4-.1,11-.7,22.6-2,31.8-8.6,3.2-6.9,6.2-13.4,2.5-21-3.4-7.1-11.3-11.5-18.7-13.4-19.3-4.9-119-1.3-148.1-1.4l-484.1-.8c-19.4,0-101.2-5-114.7,4.3-13.3,20-15.9,76.7-10.6,100.6,1.9,8.6,5.8,16.8,13.6,21.4,2.6,1.6,5.5,2.6,8.4,3.4,6.3,1.7,758.5,1,762.4-.2,6-1.8,10.1-5.7,13.1-11.2,2.6-4.6,3.2-11.3,1.5-16.3-2-5.5-5.6-8.5-10.9-10.7-17-7.1-499.8-4.1-556.4-4.1-62.5.2-125.3,1.8-187.8.7l.2-44.9,469.6,1.4Z"/>
  <path class="st0" d="M1305,1213.8c14.7,12,49.2,8.5,67.1,8.2l2227-15.4c11.6,0,28,.1,36.5-9.3,3.8-4.2,5.1-10.3,4.5-15.8-.6-6.1-3.3-10.3-8.2-13.9-14.1-10.4-49.1-4-66.3-3.6-744.3,8.8-1488.5,13.4-2232.9,14-9.4,0-19.1-1.5-26.1,6.2-3.7,4.1-8.5,11.8-8.4,17.3,0,5.6,2.6,8.8,6.8,12.3Z"/>
  <path class="st0" d="M1931.6,2468.9c-13.7-9.3-173.5-3.5-201.9-3l-356,1.8c-56,.2-113.4-2.4-169.3.6-6,.3-13.8.8-18.5,5.1-5.3,4.9-9.1,14.2-8.2,21.5.6,4.6,1.9,6.7,4.6,10.4,7.3,4.5,17,4.8,25.4,5.3,65.9,3.9,133.8.4,199.9.3,162.6-.4,325.6-3.6,488.2-1.9v43.3c0,0-953.5,4.2-953.5,4.2-174,1.1-348.7,5-522.6,2.8.1-14.9.5-29.8,1.1-44.7l277.5-.6c73.3-.7,146.5-1,219.8-.9,38.6,0,77.9,1.5,116.4-.5,8.8-.5,24.5-.9,31.6-5.9,4.9-3.5,7.2-13,6.8-18.5-.4-5.4-2.6-10.2-6.8-13.7-5.7-4.8-15.7-4.9-22.8-5.2-52.9-2.3-106.8-.2-159.9-.1-101.2,0-202.4.5-303.7,1.6-35.3.6-70.7.9-106,1-24.3,0-51.2-2.3-75,1.7-6.1,1-13,2.5-16.9,7.7-9.6,12.6-9.6,88-5.7,104.4,1.3,5.3,3,10,8,12.9,8.7,5,22.6,5.3,32.5,5.4,132.8.8,265.9-1.9,398.8-2.8l690.5-3.6,261-.7c36.4,0,140.5,5,167.8-4.2,3.2-3.8,5.6-7.2,6.5-12.2,3.9-21.9,4.7-60.7,3.1-82.8-.7-10.1-3.4-22.3-12.3-28.4Z"/>
  <path class="st0" d="M1916.9,2104.1c-46.7-1.1-93.5.5-140.2.4h-367.4s-168.6-.4-168.6-.4c-30.5-.1-62.9-2.4-93.1,1.4-6.4,6.1-11,11.1-11.1,20.5,0,6.5,2.3,11.2,7,15.6,5.6,5.2,12.9,6.6,20.2,7.2,28.3,2.4,58,.7,86.4.8l159.4.3,497,1.1c-.2,13.1,0,26.3-.6,39.4l-1485.7-2.3.2-40.1h400.6c37.5.1,75-.2,112.5.2,19.2.2,39.7,2.2,58.8.7,9.3-.7,20-2.7,27-9.4,4.5-4.2,7.6-11.1,6.9-17.3-.6-6-4-9.7-8.8-12.9-19-12.5-90.4-6.2-114.4-5.8l-345,1c-51.2.1-109.3-3-159.6,0-5.8.3-11,1-15.9,4.5-10.3,18.2-12.1,83.6-6.5,104.6,1.5,5.7,3.2,9.5,7.5,13.8,28.8,8.5,105.4,2.3,138.9,2.3,83.3.9,166.6,1.4,249.9,1.4l685.5,1c148.8,1.3,297.6,1.8,446.4,1.5,10.3,0,27.8,0,36.9-4.6,5.6-2.9,7.4-10,8.5-15.8,3.4-17.4,7.9-87.9-3.1-101.8-6.2-7.8-20.4-7.1-29.5-7.3Z"/>
  <path class="st0" d="M3615.1,2117.7c-57.1-6-134.2-2.1-192.8-2.4l-383.8-2.8-554.3-4.5-212.4-1.8c-35.5-.3-71.8-2.4-107.3-.8-7.3,3.6-10.9,5.4-13.4,13.8-5.6,18.7-8.7,97.1.1,112.3,7.4,6.5,13.8,7.3,23.2,7.9,61.2,3.8,124.2,1.1,185.6,1.3l314.6,2.5,936.7,4.3c8.7-5.7,14.8-11,16.8-21.6,3.4-18,6.2-89.9-4.1-103.5-2.6-3.4-4.5-4.2-8.8-4.7ZM3582.5,2203.3l-1390.6-6.6c-.9-15.2-.6-30.3-.4-45.6,208.4-4,417.1,3.7,625.5,5.7l765.8,3.6c.2,14.3-.1,28.6-.3,42.9Z"/>
  <path class="st0" d="M3622.9,1236c-14-4.3-122.7-.4-146.4.3-323.2,6.7-646.6,7.7-969.9,10.5l-211.6,1.8c-34.3,0-68.8-1.6-103.1-.7-6.4.2-14.1.1-19.2,4.5-5.3,4.6-8.4,15.5-7.6,22.4.7,5.6,3.3,9,7.9,11.9,6.3,4,15.5,5.3,22.8,5.6,38.9,1.8,79.5-1.7,118.5-2.3l219.8-1.8,695.4-6.2c120.4-1.1,241.2-6,361.6-3.1v39.8s-1917.4,11-1917.4,11c-111.5.5-223.9,3.6-335.4.4v-34.8s493.3-3.3,493.3-3.3l165.3-.6c27.3,0,56,1.7,83.2-.6,6.7-.6,12.9-2.5,17.8-7.4,4.1-4.1,6.9-9.5,7-15.3.1-5.8-2.5-10.4-6.6-14.3-5.5-5.2-14.9-5.5-22-5.6-48.7-1.2-98.2,1.6-147,1.9l-317,.8-193.2.5c-33.4.1-69.4-2.4-102.4,1.9-7,.9-11.8.8-16.2,7-7.5,10.7-7.5,83.4-3.3,96.9,1.6,5,4.2,9.7,9,12.3,6.9,3.7,17.2,3.5,24.9,3.7,169.4,3.2,339.6-1,509.1-1.6l1153.9-6.7c64.4-.4,612,3.7,629.7-3.5,5.3-2.2,8.5-7.6,10.4-12.8,7.9-21.4,8.9-84.1-1.4-104.3-2.3-4.5-5.3-7-10-8.4Z"/>
  <path class="st0" d="M3607.4,2368c-24.6-2.2-50-1.2-74.7-1.2h-133.8c0,0-368.9-3.7-368.9-3.7-196.6-2.7-393.2-3.8-589.9-3.4l-175.9-.4c-34.5-.1-69.5-1.4-103.9.5-10.1,8-11.7,14.5-13.1,27-2.5,21.7-8.5,87,6.3,103.5,5.8,6.5,22.9,4.7,31.3,4.9,62.3,1.4,124.7-.2,187,.5,257.2,2.8,514.4,4.2,771.6,4.2l325.2,1.9c46.7,0,96.3,3.5,142.6-.5,8.6-6.3,12-10.6,13.6-21.3,3.3-23,7.6-88.5-6.9-106.4-3-3.8-5.5-5.2-10.4-5.6ZM3580.2,2459.9c-30.6.5-61.4-1.5-92.1-1.6l-304.2-1.8-996.2-4.3c0-16.4.3-32.5,1.9-48.9,60.3-1.8,121.2-.1,181.6,0,120.4,0,240.8.5,361.2,1.8l848.1,4.7c.6,16.7,0,33.5-.3,50.2Z"/>
  <path class="st0" d="M3586.8,1011.2c-18.4.8-36.9,1.2-55.3,1.3l-910,7.3c-97.8.2-195.6.9-293.3,2.3-41.9.4-85.1-1.8-126.8.5-11.1.6-27.6,2.2-35.6,10.8-3.4,3.7-4.5,8.5-3.6,13.4,1.2,6.2,5,11.3,9.2,15.7,4.5,2.1,7.6,2.7,12.6,2.9,48.8,1.5,98.2-.8,147-1.1l279.9-1.4,985.2-5.9-.4,34.1-1850.9,12c-134.4.3-269.2,2.7-403.6.6l-.4-34.5,518.4-3.1c49.8-.3,99.6-.4,149.4-.2,23.8,0,48.7,1.7,72.3.3,7.3-.4,12.8-.6,18.2-6,5-4.9,7.3-15.9,5.7-22.5-1-4.3-5.4-11.3-9.7-13.1-6-2.6-12.9-2.7-19.3-2.8-136.2-1.8-272.9,1.8-409.1,2.6-111.4.7-223.2-1.7-334.5,2-8.6.3-19.2.1-27.1,3.9-8.7,12.2-9.9,80.2-7,95.8,1.5,8,4.1,12.4,10,17.8,29.6,6.9,152.8,2,190.4,1.9l467.1-1.5c541.3-.2,1082.5-3.3,1623.7-9.3,10.4,0,33.7,2,42-3.9,5.4-3.8,7.8-8.9,8.3-15.4,1.4-17.7,2.9-85-7.7-97.6-9.5-11.2-32.2-7.5-45.3-7.1Z"/>
  <path class="st0" d="M1959.4,1461.7c-10-4.3-19.6-5.8-30.4-6.4-44.7-2.2-90.2-.5-134.9-.5l-243.3-.6h-196.5c-35.5,0-72.2-1.9-107.5,1-9.3,7.8-10.1,14.7-11.2,26.4-6.7,72.8-3.4,148.8-4.5,222-1.4,92.5-6.4,186.4-4,278.8.2,8.1,1,15.7,4,23.3,6.9,6.4,11.6,8.9,21.1,9.8,29.5,2.8,61.2.5,90.8.3l166.8-.2,266.6.5c55.3.3,110.9,1.8,166.1.5,6.5-4.4,12.1-7.9,13.8-16.2,2.8-14.2,1.6-31.4,2-46.1l2.2-93.4c1.8-81.3,3-162.7,3.5-244,.5-39.3,2.7-78.9,1.9-118.1-.2-10.7-.8-28.4-6.5-37.3ZM1914.3,1973.1l-642.2-.2c-.2-158.7,5.1-317.6,7-476.3l392.7,1.7c84,.5,168.5-.9,252.5,2.3-1.8,157.2-3.5,315.5-10,472.6Z"/>
  <path class="st0" d="M1403.4,1575.2c-19.3-15.2-40.5-36.7-61.7-48.4-4.9-2.7-8.4-2.7-13.7-2.4-.5,7.4-1.5,8.3,3.4,14,18.5,21.2,61.2,50.6,84.4,69.2,54.6,43.4,108.3,87.9,161.2,133.4-29.6,24.4-231,183.2-239.9,199.9,1,5.6,1.1,5.5,5.5,9.2,16.1-1.6,221.1-172.6,250.7-196.5,62.1,48.4,121.8,99.9,183.6,148.7,19.4,15.3,39.1,34,59.7,47.4,5.1,3.3,5.9,3.4,11.6,2.7,2.4-2.6,4.9-5,7-7.9-15.7-23.5-55.7-48.1-78.5-66.3-55.9-44.6-115.5-88.9-167.5-137.8,32.1-26.4,237.4-189.2,245.5-203.2l-.4-5.4c-4.8-4-5.2-4.1-11.5-4.6-15.9,7.5-30.5,22.4-44.5,33.3-69.2,54.7-137.1,111-203.7,168.8-64.1-50.9-126.8-103.5-191.2-154.2Z"/>
  <path class="st0" d="M3632,1475.3c-4.8-8.1-15.8-9.1-24.4-10.1-37-4.4-77.4-1.5-114.8-1.6l-237.1-.2-220.1-.4c-41.2-.2-84-2.7-124.9.8-5.5,5.8-7.7,8.2-8.9,16.5-3.9,27-2.1,57-2.7,84.3-1.3,61.5-2.2,123-2.7,184.5l-1.7,177.8c-.3,21.5-3.2,43.5-2.4,65,.4,11.4,1.7,21,8.9,30.1,7.9,3.2,17.2,3.3,25.6,3.7,40.2,2,81.1.9,121.4,1.5,87,1.6,174,2.8,261,3.5l191.5,1.8c38.3.5,76.7,2.5,115,1.5,6.2-3.8,11.1-5,13.2-12.5,5.9-21.2,3.3-131.1,3.5-163.2.9-122.7,3.8-246,2.6-368.7,0-4.8-.4-10.2-2.9-14.4ZM3587.4,1812.3c-.9,58.5,2,118.5-3.3,176.8-215.9-3.1-431.8-4.5-647.7-4.1-.7-159.3,6.2-318.8,9.1-478.1,75-.8,150.2,1.6,225.2,2.1l418.7,1.2c3.1,100.2-.4,201.8-2,302.1Z"/>
  <path class="st0" d="M3464.3,1908.7c-49.2-36.2-97.6-73.4-145.2-111.6-17-13.9-35.8-27.6-51.4-43,58.1-51.8,117.9-101,178.6-149.7,23.8-19.1,48.8-37.2,72.2-56.8,5.5-4.6,10.6-9.1,13.9-15.6l-.8-4.7c-3.5-2.1-5.7-2.6-9.8-2.9-28.9,17.1-55.3,40.4-81.4,61.3-62.2,49.9-126,107.4-189.5,154.1-35-28.3-216.7-186.9-240.2-189.8-5.2,1.5-4.8.3-7.8,5.4,1.7,7.2,8.5,12.4,13.9,17.2,21.6,19.2,46.2,35.6,69,53.6,51,40.3,103.3,82.7,150.6,127.1-50.6,46.3-105.8,89.2-159.3,132.2-23.2,18.7-49.7,36.9-70.6,58-4,4.1-6.9,6.5-7.4,12.4,5.6,1.9,11.4.6,16.6-2,6.8-3.4,13.4-8.6,19.4-13.4,74.1-56.4,148.5-114.2,218.6-175.6,42.1,37.9,233.6,194.2,274,200.9l4.2-1.3,1.6-4.4c-16.3-19.7-48.2-36-69.2-51.5Z"/>
  <path class="st0" d="M2176.4,2019.7c64.1,1.1,128.2,1.9,192.2,2.3l293.4,1.5c41.2.3,83,2.7,124.2,2,14.7-14.1,12.5-33.9,13-52.9,1.4-61.7,12.3-469.8,2.3-500.2-5.7-4.9-10.1-6.6-17.6-7.4-33.7-3.8-70.1-1.6-104.1-2l-218-1.9c-84.9-1.1-169.8-1.7-254.7-1.9-41.5-.3-85.4-3.4-126.6-.5-3.6.2-7.2.6-10.8,1-12.2,11.9-11.4,26.6-11.6,42.7l-5,336.3c-.6,37.9-7.3,142.4,1.5,172.7,7.1,6.1,9.6,6,18.9,6.8,33.8,2.9,69,1.2,103,1.5ZM2093.8,1975.2c-1.7-157.6,4.8-316.3,7.7-474l661.4,6.6c.2,63.1-3,126.7-4.1,189.9l-4.1,282.6c-87,1.3-174.2-.8-261.2-1.6l-399.7-3.5Z"/>
  <path class="st0" d="M2694.3,1956.4c.8-3.2,2-4.5.4-7.7-6.7-13.5-229.7-167.9-265.6-201.2,59.9-50.5,121.2-99.3,183.7-146.5,26.8-20.2,63.6-43.1,88.2-63.4,4.3-3.5,6-5.7,6.6-11.2-3.7-4.4-7.1-4.8-12.5-6.3-99.7,64.3-186.2,146-282.3,214.9-66.5-45.1-130.4-96-194.7-144.3-18.6-14-36.5-29.7-55.7-42.8-5.2-3.5-10.1-6.1-16.4-6.6-4.3,2.9-3.9,2.8-5,7.9,1.6,4.5,3.5,7.1,7,10.2,22,19.5,47.5,36.7,71.1,54.4,59.4,44.6,120.7,87.8,177.2,136-50.4,43.5-101.8,85.8-154,127.1-24,19.3-50,37.9-72.5,58.9-4.7,4.4-8.7,8-11.1,14.1l2.1,5.9c3.8,1.8,3.1,2.4,6.6,1.3,6.9-2.2,13.4-8.4,19-12.8l159.1-127c22.6-18.4,44.1-38.7,67.3-56.3,34.1,25.7,257.1,192,278,197.4l3.7-1.9Z"/>
  <path class="st0" d="M1143.2,1487.5c-.3-9.9-1.2-22.2-5.7-31.1-1.8-3.7-2.2-4.8-6.3-6.1-20.3-6.8-76.5-1.5-100.7-.9l-410.7,3.2c-69.3.2-140.3-2.9-209.4.8-6.8.4-13.4,1-18.8,5.8-6.4,5.6-7.1,15.3-7.9,23.3-3.4,36.6-2.4,74.7-3,111.5l-2.5,184.3c-.6,67.2-6.4,146.5-3,212.6.4,7.8,1.2,14.9,4.5,22.1,18.5,15.7,81.4,8.3,107,7.9l414.4-1.3c66.9-.1,136.2,3.5,202.7-1.3,10-.7,22.2-1.1,29.4-8.1,3.2-8.6,3.8-17.3,4.2-26.4,4.1-89.5,2.1-180.2,2.9-269.9.7-75.1,4.7-151.2,2.7-226.2ZM1092.4,1978.6c-179.1-.2-358.3-5.3-537.5-1.8l-135.7,1.4c4.1-160.5,3.2-321.1,6.6-481.6l547.9-3.3,126.3-1c-4.6,162-2.8,324.2-7.7,486.3Z"/>
  <path class="st0" d="M487.6,1523.7l-3.6,1.4c-.7,4.8-1.4,6.5,2,10.7,10.1,12.5,54.8,43.3,69.9,55.1,63,49.3,127.8,97.9,187.5,151-35.2,28.1-248.5,192.6-255.2,208,1.6,3.7,2.7,5.1,6,7.3l6.6-2c88.7-62.8,173.7-131.9,257.3-201.3l177.7,136.8c26.5,20.6,54.7,46.8,82.7,64.4,5.8,3.7,11.5,4.1,18.2,3.8l3.5-2.3c-.5-1.6-.6-3.4-1.4-4.9-4.3-7.6-234.4-184.7-264.3-209.7,49.1-42.5,99.1-83.8,150-124,29.7-23.6,93.9-67.8,114.3-96.2-.8-5.5-2.2-6.8-7.3-9.8-.9-.5-1.9-.7-2.8-1.1-92.9,70.7-182.7,146.5-273.1,220.4-27.8-26.8-246.9-203.6-267.8-207.9Z"/>
  <path class="st0" d="M383.8,1380.8c16,8.2,62.7,1.6,82.2,1.6l530.8-4.2c47.7-.6,166.2,3.5,207-7.7,5-7.7,4.5-20.8,4.9-29.9,6.9-177.3,5.6-355.7,7.8-533.2.6-49.6.9-99.2,1-148.8.2-18.1,3.8-41,.4-58.6-1.4-7.4-4.4-12.8-10.6-17.2-17.1-12.2-65.3-5.5-86.8-5l-481,4.1c-70.9.7-143.6-2-214.3,2.1-10.7.6-28.4,1.8-37.3,8.1-4.4,8.1-5,16.8-5.7,25.8-5.2,70.7-4.7,142.6-6.1,213.5-2.6,110-4.2,220.1-4.6,330.1-.2,47.4-5.4,169.4,4.8,207.1,1.3,4.9,2.8,9.9,7.6,12.3ZM425,629.2c56.5-2.3,113.3-1.4,169.9-2.3l430.8-5.3c49.9-.7,99.7-.9,149.6-.7.5,91.5-2.7,183.1-4,274.6-1.6,145.8-4.2,291.5-7.8,437.3-52.8,2-106,1.3-158.8,2.1l-436.5,5.1-151.8,1.3c-4.4-237.5,6.2-474.6,8.8-712Z"/>
  <path class="st0" d="M3640.3,556.5c-9.4-10.9-64.7-5.3-79.7-5.1l-1806.5,15.5c-49.9.6-424.1.2-442.8,8.5-5.3,7.9-6.6,16.3-7.5,25.6-4.3,45.1-.8,92.9-1.4,138.3l-2.7,129.6c-.5,24.7-3.7,52.7,1.1,77,1,5.1,1,6.7,4.8,10.3,25.9,6,57.6.5,84.3.4l1636.7-7.4,407.2-1.7c43,0,161.9,4.2,199.1-4.1,6.8-7.4,8.7-15.3,9.9-25.1,5-41.4,1.5-92.3,2-134.6l1-138.7c.2-19.5,1.9-39.2,1.3-58.6-.2-8.6-1-23.2-6.8-29.9ZM3598.7,901.5l-2153.5,11.6-99.9.7,4.1-297.3,2145.7-21.2,107.1-.4-3.6,306.6Z"/>
</svg>